<svg xmlns="http://www.w3.org/2000/svg" version="1.1" xmlns:xlink="http://www.w3.org/1999/xlink" xmlns:svgjs="http://svgjs.dev/svgjs" width="100%" height="100%" viewBox="0 0 1000 600"><rect width="1000" height="600" x="0" y="0" fill="#4f46e5"/><g><circle r="166.66666666666666" cx="335.2237803141276" cy="357.44600177839027" fill="Indigo" transform="matrix(0.741588421081727,0,0,0.7415884210817267,0,34.92218391918745)"/><path d="M311.69156759463465 282.4460084442036L349.8860116711492 282.4460084442036L349.8860116711492 432.4460069992425L323.2761634426353 432.4460069992425L323.2761634426353 307.22504860954564L286.91252742929254 432.4460069992425L269.2041942665449 432.4460069992425L232.84055825320212 306.7515637656219L232.84055825320212 432.4460069992425L211.47060896411094 432.4460069992425L211.47060896411094 282.4460084442036L251.46429544753565 282.4460084442036L281.70419414613144 390.4005528588149L311.69156759463465 282.4460084442036ZM360.1132842999018 282.4460084442036L458.9769197111775 282.4460084442036L457.3670712418368 299.2705032316269L422.39232410400365 299.2705032316269L422.39232410400365 432.4460069992425L395.7824758754898 432.4460069992425L395.7824758754898 299.2705032316269L360.1132842999018 299.2705032316269L360.1132842999018 282.4460084442036Z " fill="#4f46e5" transform="matrix(0.741588421081727,0,0,0.7415884210817267,0,34.92218391918745)"/><path d="M662.7636620680911 282.446015746588L692.3142960860349 282.446015746588L692.3142960860349 398.49941479887616L671.7265403198146 398.49941479887616L671.7265403198146 301.6172948408738L643.5923829738053 398.49941479887616L629.8916344745769 398.49941479887616L601.7574771285676 301.2509646670976L601.7574771285676 398.49941479887616L585.2237752854702 398.49941479887616L585.2237752854702 282.446015746588L616.1664639637634 282.446015746588L639.5627510622676 365.96929536755295L662.7636620680911 282.446015746588ZM824.1931586454533 282.446015746588L843.5353918208347 282.446015746588L815.0349043010491 398.49941479887616L788.6591317891656 398.49941479887616L771.6125677027813 315.14708925900675L754.5660036163973 398.49941479887616L728.1902311045138 398.49941479887616L701.9854126737256 282.446015746588L722.7197005094564 282.446015746588L743.3074562756766 385.3115285429343L763.6998359492164 282.446015746588L783.2130232056933 282.446015746588L803.8007789719135 385.3115285429343L824.1931586454533 282.446015746588ZM840.0186221525834 282.446015746588L916.508362437046 282.446015746588L915.2628398462072 295.4629479214343L888.2032510099413 295.4629479214343L888.2032510099413 398.49941479887616L867.615495243721 398.49941479887616L867.615495243721 295.4629479214343L840.0186221525834 295.4629479214343L840.0186221525834 282.446015746588ZM945.3507581190225 282.446015746588L971.5311545382257 282.446015746588L1001.6190728110411 398.49941479887616L980.8603629637252 398.49941479887616L973.826823627223 368.94878078093234L939.3673652806787 368.94878078093234L932.5047800252718 398.49941479887616L913.1625468498904 398.49941479887616L945.3507581190225 282.446015746588ZM956.5848834481582 295.6339020025298L942.5178047751536 355.9562706176712L970.8473382138435 355.9562706176712L956.5848834481582 295.6339020025298ZM1057.3501032481877 305.30501859022047Q1073.8838050912855 305.30501859022047 1080.9173444277876 318.5905928925026Q1087.9508837642898 331.8517451831997 1087.9508837642898 352.43950094942L1087.9508837642898 352.43950094942Q1087.9508837642898 374.93217361927634 1078.2797671765993 388.6573441300899Q1068.6086505889084 402.3580926293183 1048.55817907756 402.3580926293183L1048.55817907756 402.3580926293183Q1040.1081630691233 402.3580926293183 1033.2699998253015 400.0868455519061L1033.2699998253015 400.0868455519061L1033.2699998253015 430.3212958942321L1013.92776664992 432.4460109021338L1013.92776664992 308.82178825847166L1030.0951383192414 306.72149526215503L1030.9743307363042 322.5469587692852Q1038.3497782349978 305.30501859022047 1057.3501032481877 305.30501859022047L1057.3501032481877 305.30501859022047ZM1050.4875179927812 318.8348130083534Q1041.3536856599621 318.8348130083534 1037.2996317368393 326.1369944722916Q1033.2699998253015 333.43917593622973 1033.2699998253015 344.52676919585485L1033.2699998253015 344.52676919585485L1033.2699998253015 386.36167504109267Q1041.3536856599621 391.8077836245649 1049.4373714946228 391.8077836245649L1049.4373714946228 391.8077836245649Q1060.1586345804717 391.8077836245649 1063.5044501676275 380.91556645762034Q1066.8502657547829 370.0233492906758 1066.8502657547829 353.31869336648276L1066.8502657547829 353.31869336648276Q1066.8502657547829 337.6641839404482 1063.8463583298185 328.2617094801933Q1060.8668729164392 318.8348130083534 1050.4875179927812 318.8348130083534L1050.4875179927812 318.8348130083534ZM1149.3233988775896 305.30501859022047Q1165.8326787091019 305.30501859022047 1172.866218045604 318.5905928925026Q1179.8997573821066 331.8517451831997 1179.8997573821066 352.43950094942L1179.8997573821066 352.43950094942Q1179.8997573821066 374.93217361927634 1170.2286407944157 388.6573441300899Q1160.5575242067252 402.3580926293183 1140.5314747069615 402.3580926293183L1140.5314747069615 402.3580926293183Q1132.0814586985248 402.3580926293183 1125.218873443118 400.0868455519061L1125.218873443118 400.0868455519061L1125.218873443118 430.3212958942321L1105.8766402677365 432.4460109021338L1105.8766402677365 308.82178825847166L1122.068433948643 306.72149526215503L1122.9476263657057 322.5469587692852Q1130.3230738643992 305.30501859022047 1149.3233988775896 305.30501859022047L1149.3233988775896 305.30501859022047ZM1142.4608136221827 318.8348130083534Q1133.302559277779 318.8348130083534 1129.2729273662408 326.1369944722916Q1125.218873443118 333.43917593622973 1125.218873443118 344.52676919585485L1125.218873443118 344.52676919585485L1125.218873443118 386.36167504109267Q1133.302559277779 391.8077836245649 1141.4106671240243 391.8077836245649L1141.4106671240243 391.8077836245649Q1152.1319302098736 391.8077836245649 1155.477745797029 380.91556645762034Q1158.7991393725997 370.0233492906758 1158.7991393725997 353.31869336648276L1158.7991393725997 353.31869336648276Q1158.7991393725997 337.6641839404482 1155.81965395922 328.2617094801933Q1152.8401685458407 318.8348130083534 1142.4608136221827 318.8348130083534L1142.4608136221827 318.8348130083534Z " fill="#ffffff" transform="matrix(0.741588421081727,0,0,0.7415884210817267,0,34.92218391918745)"/></g></svg>